<?xml version="1.0" encoding="UTF-8"?>
<!DOCTYPE svg PUBLIC "-//W3C//DTD SVG 1.1//EN" "http://www.w3.org/Graphics/SVG/1.1/DTD/svg11.dtd">
<svg version="1.1" xmlns="http://www.w3.org/2000/svg" xmlns:xlink="http://www.w3.org/1999/xlink" x="0px" y="0px" width="465.979" height="336.5" viewBox="0, 0, 465.979, 336.5">
  <g id="Layer 1">
    <path d="M255.244,306.154 L350.456,306.154 C351.561,306.154 352.456,307.049 352.456,308.154 L352.456,332.5 C352.456,333.605 351.561,334.5 350.456,334.5 L255.244,334.5 C254.139,334.5 253.244,333.605 253.244,332.5 L253.244,308.154 C253.244,307.049 254.139,306.154 255.244,306.154 z M255.244,306.154" fill="#BBFACA"/>
    <path d="M255.96,307.5 L351.456,307.5 C352.561,307.154 353.456,308.049 352.96,309.154 L352.96,333.5 C353.456,334.605 352.561,335.5 351.456,335.5 L256.244,335.5 C255.139,335.5 254.244,334.605 253.96,333.5 L253.96,309.154 C254.244,308.049 255.139,307.154 255.96,307.5 z M255.96,307.5" fill-opacity="0" stroke="#334537" stroke-width="2" stroke-linecap="round" stroke-linejoin="round"/>
    <g>
      <text transform="matrix(1, 0, 0, 1, 299.738, 320.827)">
        <tspan x="-33.011" y="3.5" font-family="Menlo-Bold" font-size="12" fill="#334537">public ke</tspan>
      </text>
      <text transform="matrix(1, 0, 0, 1, 335.871, 320.827)">
        <tspan x="-4.112" y="3.5" font-family="Menlo-Bold" font-size="12" fill="#334537">y</tspan>
      </text>
    </g>
    <path d="M304.46,306.154 L304.46,261.361" fill-opacity="0" stroke="#000000" stroke-width="1" stroke-linecap="round" stroke-linejoin="round"/>
    <path d="M302.85,252.361 L299.85,260.361 L305.85,260.361 z M302.85,252.361" fill="#000000"/>
    <path d="M303.85,253.361 L300.85,261.361 L306.85,261.361 z M303.85,253.361" fill-opacity="0" stroke="#000000" stroke-width="1"/>
    <path d="M148.527,31.193 L224.732,31.193 C226.389,31.193 227.732,32.536 227.732,34.193 L227.732,62.209 C227.732,63.866 226.389,65.209 224.732,65.209 L148.527,65.209 C146.87,65.209 145.527,63.866 145.527,62.209 L145.527,34.193 C145.527,32.536 146.87,31.193 148.527,31.193 z M148.527,31.193" fill="#AFA785" fill-opacity="0.15"/>
    <path d="M149.96,32.5 L225.732,32.5 C227.389,32.193 228.732,33.536 228.96,35.193 L228.96,63.209 C228.732,64.866 227.389,66.209 225.732,66.5 L149.527,66.5 C147.87,66.209 146.527,64.866 146.96,63.209 L146.96,35.193 C146.527,33.536 147.87,32.193 149.96,32.5 z M149.96,32.5" fill-opacity="0" stroke="#5D5846" stroke-width="2" stroke-linecap="round" stroke-linejoin="round"/>
    <g>
      <text transform="matrix(1, 0, 0, 1, 183.517, 48.701)">
        <tspan x="-22.174" y="3.5" font-family="Menlo-Bold" font-size="12" fill="#5D5846">messag</tspan>
      </text>
      <text transform="matrix(1, 0, 0, 1, 208.81, 48.701)">
        <tspan x="-4.112" y="3.5" font-family="Menlo-Bold" font-size="12" fill="#5D5846">e</tspan>
      </text>
    </g>
    <path d="M145.527,49 L117.742,49" fill-opacity="0" stroke="#000000" stroke-width="1" stroke-linecap="round" stroke-linejoin="round"/>
    <path d="M108.742,48.201 L116.742,51.201 L116.742,45.201 z M108.742,48.201" fill="#000000"/>
    <path d="M109.742,49.201 L117.742,52.201 L117.742,46.201 z M109.742,49.201" fill-opacity="0" stroke="#000000" stroke-width="1"/>
    <path d="M68.18,72.877 L67.606,107.334" fill-opacity="0" stroke="#000000" stroke-width="1" stroke-linecap="round" stroke-linejoin="round"/>
    <path d="M66.472,114.333 L69.605,106.384 L63.606,106.284 z M66.472,114.333" fill="#000000"/>
    <path d="M67.472,115.333 L70.605,107.384 L64.606,107.284 z M67.472,115.333" fill-opacity="0" stroke="#000000" stroke-width="1"/>
    <path d="M94.634,32.166 C109.578,41.022 109.578,55.38 94.634,64.236 C79.689,73.092 55.459,73.092 40.515,64.236 C25.57,55.38 25.57,41.022 40.515,32.166 C55.459,23.31 79.689,23.31 94.634,32.166" fill="#FFF4D4"/>
    <path d="M95.634,33.166 C110.578,42.022 110.578,56.38 95.634,65.236 C80.689,74.092 56.46,74.092 41.515,65.236 C26.571,56.38 26.571,42.022 41.515,33.166 C56.46,24.31 80.689,24.31 95.634,33.166" fill-opacity="0" stroke="#5D5846" stroke-width="2" stroke-linecap="round" stroke-linejoin="round"/>
    <g>
      <text transform="matrix(1, 0, 0, 1, 64.462, 48.701)">
        <tspan x="-11.337" y="3.5" font-family="Menlo-Bold" font-size="12" fill="#5E5846">has</tspan>
      </text>
      <text transform="matrix(1, 0, 0, 1, 78.914, 48.701)">
        <tspan x="-4.112" y="3.5" font-family="Menlo-Bold" font-size="12" fill="#5E5846">h</tspan>
      </text>
    </g>
    <path d="M94.634,210.749 C109.578,219.605 109.578,233.963 94.634,242.819 C79.689,251.675 55.459,251.675 40.515,242.819 C25.57,233.963 25.57,219.605 40.515,210.749 C55.459,201.893 79.689,201.893 94.634,210.749" fill="#FFF4D4"/>
    <path d="M95.634,211.749 C110.578,220.605 110.578,234.963 95.634,243.819 C80.689,252.675 56.46,252.675 41.515,243.819 C26.571,234.963 26.571,220.605 41.515,211.749 C56.46,202.893 80.689,202.893 95.634,211.749" fill-opacity="0" stroke="#5D5846" stroke-width="2" stroke-linecap="round" stroke-linejoin="round"/>
    <g>
      <text transform="matrix(1, 0, 0, 1, 64.462, 227.284)">
        <tspan x="-22.174" y="3.5" font-family="Menlo-Bold" font-size="12" fill="#5E5846">encryp</tspan>
      </text>
      <text transform="matrix(1, 0, 0, 1, 89.755, 227.284)">
        <tspan x="-4.112" y="3.5" font-family="Menlo-Bold" font-size="12" fill="#5E5846">t</tspan>
      </text>
    </g>
    <path d="M17.133,303.319 L118.015,303.319 C119.12,303.319 120.015,304.215 120.015,305.319 L120.015,332.5 C120.015,333.605 119.12,334.5 118.015,334.5 L17.133,334.5 C16.029,334.5 15.133,333.605 15.133,332.5 L15.133,305.319 C15.133,304.215 16.029,303.319 17.133,303.319 z M17.133,303.319" fill="#D1CFFB"/>
    <path d="M17.96,304.5 L119.015,304.5 C120.12,304.319 121.015,305.215 120.96,306.319 L120.96,333.5 C121.015,334.605 120.12,335.5 119.015,335.5 L18.133,335.5 C17.029,335.5 16.133,334.605 15.96,333.5 L15.96,306.319 C16.133,305.215 17.029,304.319 17.96,304.5 z M17.96,304.5" fill-opacity="0" stroke="#17214E" stroke-width="2" stroke-linecap="round" stroke-linejoin="round"/>
    <g>
      <text transform="matrix(1, 0, 0, 1, 64.462, 319.41)">
        <tspan x="-36.623" y="3.5" font-family="Menlo-Bold" font-size="12" fill="#17214E">private ke</tspan>
      </text>
      <text transform="matrix(1, 0, 0, 1, 104.209, 319.41)">
        <tspan x="-4.112" y="3.5" font-family="Menlo-Bold" font-size="12" fill="#17214E">y</tspan>
      </text>
    </g>
    <path d="M67.415,151.248 L68.066,194.209" fill-opacity="0" stroke="#000000" stroke-width="1" stroke-linecap="round" stroke-linejoin="round"/>
    <path d="M67.187,201.208 L70.065,193.163 L64.066,193.254 z M67.187,201.208" fill="#000000"/>
    <path d="M68.187,202.208 L71.065,194.163 L65.066,194.254 z M68.187,202.208" fill-opacity="0" stroke="#000000" stroke-width="1"/>
    <path d="M68.46,303.319 L68.46,261.361" fill-opacity="0" stroke="#000000" stroke-width="1" stroke-linecap="round" stroke-linejoin="round"/>
    <path d="M67.574,252.361 L64.574,260.361 L70.574,260.361 z M67.574,252.361" fill="#000000"/>
    <path d="M68.574,253.361 L65.574,261.361 L71.574,261.361 z M68.574,253.361" fill-opacity="0" stroke="#000000" stroke-width="1"/>
    <path d="M148.527,209.776 L224.732,209.776 C226.389,209.776 227.732,211.119 227.732,212.776 L227.732,240.792 C227.732,242.449 226.389,243.792 224.732,243.792 L148.527,243.792 C146.87,243.792 145.527,242.449 145.527,240.792 L145.527,212.776 C145.527,211.119 146.87,209.776 148.527,209.776 z M148.527,209.776" fill="#5D5845"/>
    <g>
      <text transform="matrix(1, 0, 0, 1, 183.516, 227.284)">
        <tspan x="-29.398" y="3.5" font-family="Menlo-Bold" font-size="12" fill="#F3F2ED">signatur</tspan>
      </text>
      <text transform="matrix(1, 0, 0, 1, 216.037, 227.284)">
        <tspan x="-4.112" y="3.5" font-family="Menlo-Bold" font-size="12" fill="#F3F2ED">e</tspan>
      </text>
    </g>
    <path d="M106.842,228 L136.627,228" fill-opacity="0" stroke="#000000" stroke-width="1" stroke-linecap="round" stroke-linejoin="round"/>
    <path d="M143.627,226.784 L135.627,223.784 L135.627,229.784 z M143.627,226.784" fill="#000000"/>
    <path d="M144.627,227.784 L136.627,224.784 L136.627,230.784 z M144.627,227.784" fill-opacity="0" stroke="#000000" stroke-width="1"/>
    <path d="M228.732,228 L254.682,228" fill-opacity="0" stroke="#000000" stroke-width="1" stroke-linecap="round" stroke-linejoin="round"/>
    <path d="M261.682,226.784 L253.682,223.784 L253.682,229.784 z M261.682,226.784" fill="#000000"/>
    <path d="M262.682,227.784 L254.682,224.784 L254.682,230.784 z M262.682,227.784" fill-opacity="0" stroke="#000000" stroke-width="1"/>
    <path d="M229.732,49 L254.682,49" fill-opacity="0" stroke="#000000" stroke-width="1" stroke-linecap="round" stroke-linejoin="round"/>
    <path d="M261.682,48.201 L253.682,45.201 L253.682,51.201 z M261.682,48.201" fill="#000000"/>
    <path d="M262.682,49.201 L254.682,46.201 L254.682,52.201 z M262.682,49.201" fill-opacity="0" stroke="#000000" stroke-width="1"/>
    <path d="M329.909,32.166 C344.854,41.022 344.854,55.38 329.909,64.236 C314.965,73.092 290.735,73.092 275.791,64.236 C260.846,55.38 260.846,41.022 275.791,32.166 C290.735,23.31 314.965,23.31 329.909,32.166" fill="#FFF4D4"/>
    <path d="M330.909,33.166 C345.854,42.022 345.854,56.38 330.909,65.236 C315.965,74.092 291.735,74.092 276.791,65.236 C261.846,56.38 261.846,42.022 276.791,33.166 C291.735,24.31 315.965,24.31 330.909,33.166" fill-opacity="0" stroke="#5D5846" stroke-width="2" stroke-linecap="round" stroke-linejoin="round"/>
    <g>
      <text transform="matrix(1, 0, 0, 1, 299.738, 48.701)">
        <tspan x="-11.337" y="3.5" font-family="Menlo-Bold" font-size="12" fill="#5E5846">has</tspan>
      </text>
      <text transform="matrix(1, 0, 0, 1, 314.19, 48.701)">
        <tspan x="-4.112" y="3.5" font-family="Menlo-Bold" font-size="12" fill="#5E5846">h</tspan>
      </text>
    </g>
    <path d="M329.909,210.749 C344.854,219.605 344.854,233.963 329.909,242.819 C314.965,251.675 290.735,251.675 275.791,242.819 C260.846,233.963 260.846,219.605 275.791,210.749 C290.735,201.893 314.965,201.893 329.909,210.749" fill="#FFF4D4"/>
    <path d="M330.909,211.749 C345.854,220.605 345.854,234.963 330.909,243.819 C315.965,252.675 291.735,252.675 276.791,243.819 C261.846,234.963 261.846,220.605 276.791,211.749 C291.735,202.893 315.965,202.893 330.909,211.749" fill-opacity="0" stroke="#5D5846" stroke-width="2" stroke-linecap="round" stroke-linejoin="round"/>
    <g>
      <text transform="matrix(1, 0, 0, 1, 299.738, 227.284)">
        <tspan x="-22.174" y="3.5" font-family="Menlo-Bold" font-size="12" fill="#5E5846">decryp</tspan>
      </text>
      <text transform="matrix(1, 0, 0, 1, 325.031, 227.284)">
        <tspan x="-4.112" y="3.5" font-family="Menlo-Bold" font-size="12" fill="#5E5846">t</tspan>
      </text>
    </g>
    <path d="M433.374,117.205 C448.318,126.061 448.318,140.42 433.374,149.276 C418.429,158.132 394.2,158.132 379.255,149.276 C364.311,140.42 364.311,126.061 379.255,117.205 C394.2,108.349 418.429,108.349 433.374,117.205" fill="#FFF4D4"/>
    <path d="M434.374,118.205 C449.318,127.061 449.318,141.42 434.374,150.276 C419.429,159.132 395.2,159.132 380.255,150.276 C365.311,141.42 365.311,127.061 380.255,118.205 C395.2,109.349 419.429,109.349 434.374,118.205" fill-opacity="0" stroke="#5D5846" stroke-width="2" stroke-linecap="round" stroke-linejoin="round"/>
    <g>
      <text transform="matrix(1, 0, 0, 1, 403.202, 133.741)">
        <tspan x="-22.174" y="3.5" font-family="Menlo-Bold" font-size="12" fill="#5E5846">compar</tspan>
      </text>
      <text transform="matrix(1, 0, 0, 1, 428.495, 133.741)">
        <tspan x="-4.112" y="3.5" font-family="Menlo-Bold" font-size="12" fill="#5E5846">e</tspan>
      </text>
    </g>
    <path d="M372.464,31.193 L440.165,31.193 C441.822,31.193 443.165,32.536 443.165,34.193 L443.165,62.209 C443.165,63.866 441.822,65.209 440.165,65.209 L372.464,65.209 C370.807,65.209 369.464,63.866 369.464,62.209 L369.464,34.193 C369.464,32.536 370.807,31.193 372.464,31.193 z M372.464,31.193" fill="#5D5845"/>
    <g>
      <text transform="matrix(1, 0, 0, 1, 403.201, 48.701)">
        <tspan x="-18.562" y="3.5" font-family="Menlo-Bold" font-size="12" fill="#F3F2ED">diges</tspan>
      </text>
      <text transform="matrix(1, 0, 0, 1, 424.881, 48.701)">
        <tspan x="-4.112" y="3.5" font-family="Menlo-Bold" font-size="12" fill="#F3F2ED">t</tspan>
      </text>
    </g>
    <path d="M32.307,116.233 L100.007,116.233 C101.664,116.233 103.007,117.576 103.007,119.233 L103.007,147.248 C103.007,148.905 101.664,150.248 100.007,150.248 L32.307,150.248 C30.65,150.248 29.307,148.905 29.307,147.248 L29.307,119.233 C29.307,117.576 30.65,116.233 32.307,116.233 z M32.307,116.233" fill="#5D5845"/>
    <g>
      <text transform="matrix(1, 0, 0, 1, 63.044, 133.741)">
        <tspan x="-18.562" y="3.5" font-family="Menlo-Bold" font-size="12" fill="#F3F2ED">diges</tspan>
      </text>
      <text transform="matrix(1, 0, 0, 1, 84.724, 133.741)">
        <tspan x="-4.112" y="3.5" font-family="Menlo-Bold" font-size="12" fill="#F3F2ED">t</tspan>
      </text>
    </g>
    <path d="M372.464,206.941 L440.165,206.941 C441.822,206.941 443.165,208.284 443.165,209.941 L443.165,237.957 C443.165,239.614 441.822,240.957 440.165,240.957 L372.464,240.957 C370.807,240.957 369.464,239.614 369.464,237.957 L369.464,209.941 C369.464,208.284 370.807,206.941 372.464,206.941 z M372.464,206.941" fill="#5D5845"/>
    <g>
      <text transform="matrix(1, 0, 0, 1, 403.201, 224.449)">
        <tspan x="-18.562" y="3.5" font-family="Menlo-Bold" font-size="12" fill="#F3F2ED">diges</tspan>
      </text>
      <text transform="matrix(1, 0, 0, 1, 424.881, 224.449)">
        <tspan x="-4.112" y="3.5" font-family="Menlo-Bold" font-size="12" fill="#F3F2ED">t</tspan>
      </text>
    </g>
    <path d="M343.078,226.709 L360.568,226.23" fill-opacity="0" stroke="#000000" stroke-width="1" stroke-linecap="round" stroke-linejoin="round"/>
    <path d="M367.565,225.011 L359.486,222.231 L359.65,228.229 z M367.565,225.011" fill="#000000"/>
    <path d="M368.565,226.011 L360.486,223.231 L360.65,229.229 z M368.565,226.011" fill-opacity="0" stroke="#000000" stroke-width="1"/>
    <path d="M343.118,49 L360.564,49" fill-opacity="0" stroke="#000000" stroke-width="1" stroke-linecap="round" stroke-linejoin="round"/>
    <path d="M367.564,48.201 L359.564,45.201 L359.564,51.201 z M367.564,48.201" fill="#000000"/>
    <path d="M368.564,49.201 L360.564,46.201 L360.564,52.201 z M368.564,49.201" fill-opacity="0" stroke="#000000" stroke-width="1"/>
    <path d="M407.46,207.941 L407.46,167.818" fill-opacity="0" stroke="#000000" stroke-width="1" stroke-linecap="round" stroke-linejoin="round"/>
    <path d="M406.315,158.818 L403.315,166.818 L409.315,166.818 z M406.315,158.818" fill="#000000"/>
    <path d="M407.315,159.818 L404.315,167.818 L410.315,167.818 z M407.315,159.818" fill-opacity="0" stroke="#000000" stroke-width="1"/>
    <path d="M407.46,66.209 L407.46,100.663" fill-opacity="0" stroke="#000000" stroke-width="1" stroke-linecap="round" stroke-linejoin="round"/>
    <path d="M406.315,107.663 L409.315,99.663 L403.315,99.663 z M406.315,107.663" fill="#000000"/>
    <path d="M407.315,108.663 L410.315,100.663 L404.315,100.663 z M407.315,108.663" fill-opacity="0" stroke="#000000" stroke-width="1"/>
    <path d="M124.985,1.5 L134.376,1.5 C137.898,2.856 140.588,5.842 141.666,9.465 C142.275,11.514 142.123,12.116 142.123,14.222 C141.971,15.009 141.894,15.815 141.666,16.583 C140.469,20.607 137.264,23.812 133.24,25.009 C131.19,25.619 130.588,25.467 128.482,25.467 C127.696,25.314 126.89,25.238 126.122,25.009 C122.097,23.812 118.893,20.607 117.696,16.583 C117.086,14.533 117.238,13.932 117.238,11.826 C117.39,11.039 117.467,10.233 117.696,9.465 C118.383,7.154 119.818,4.782 121.791,3.327 C122.459,2.835 123.175,2.412 123.867,1.954 z" fill="#FF584F"/>
    <text transform="matrix(1, 0, 0, 1, 130.181, 13.524)">
      <tspan x="-4.393" y="5" font-family="Helvetica-Bold" font-size="14" fill="#FFFFFF">1</tspan>
    </text>
    <path d="M14.658,235.857 C17.638,236.149 20.113,237.485 22.299,239.461 C27.181,244.342 27.181,252.257 22.299,257.138 C20.223,259.164 17.559,260.463 14.658,260.742 C13.863,260.819 13.061,260.742 12.262,260.742 C11.475,260.59 10.67,260.513 9.901,260.285 C5.877,259.087 2.672,255.883 1.475,251.858 C0.865,249.809 1.017,249.208 1.017,247.101 C1.17,246.314 1.246,245.509 1.475,244.741 C2.433,241.52 4.682,238.796 7.647,237.23 C9.548,236.225 10.188,236.259 12.262,235.857 z" fill="#FF584F"/>
    <text transform="matrix(1, 0, 0, 1, 13.96, 248.8)">
      <tspan x="-4.393" y="5" font-family="Helvetica-Bold" font-size="14" fill="#FFFFFF">2</tspan>
    </text>
    <path d="M285.921,174.264 C290.803,179.146 290.803,187.06 285.921,191.942 C281.04,196.823 273.125,196.823 268.243,191.942 C263.362,187.06 263.362,179.146 268.243,174.264 C273.125,169.382 281.04,169.382 285.921,174.264" fill="#FF584F"/>
    <text transform="matrix(1, 0, 0, 1, 277.582, 183.603)">
      <tspan x="-4.393" y="5" font-family="Helvetica-Bold" font-size="14" fill="#FFFFFF">3</tspan>
    </text>
    <path d="M461.669,94.382 C462.982,95.779 464.916,98.449 464.96,100.409 C465.003,102.283 464.96,104.158 464.96,106.033 C464.594,108.375 463.22,110.344 461.669,112.06 C456.788,116.941 448.873,116.941 443.991,112.06 C439.11,107.178 439.11,99.264 443.991,94.382 C448.873,89.5 456.788,89.5 461.669,94.382 z" fill="#FF584F"/>
    <text transform="matrix(1, 0, 0, 1, 453.33, 103.721)">
      <tspan x="-4.393" y="5" font-family="Helvetica-Bold" font-size="14" fill="#FFFFFF">4</tspan>
    </text>
  </g>
  <defs/>
</svg>
